<svg width="24" height="24" viewBox="0 0 16 14" fill="none" xmlns="http://www.w3.org/2000/svg">
<g clip-path="url(#clip0_11548_27783)">
<path d="M15.8357 7.55715L11.4664 0.211365C11.4278 0.146789 11.3725 0.0932884 11.3062 0.0562011C11.2399 0.0191138 11.1649 -0.000263419 11.0886 2.70464e-06C11.012 0.000129545 10.937 0.0206343 10.8714 0.0593326C10.772 0.116246 10.6998 0.209487 10.6704 0.318616C10.641 0.427745 10.6569 0.543859 10.7146 0.641507L15.0858 7.991C15.1099 8.03214 15.1249 8.07785 15.1298 8.12511C15.1346 8.17237 15.1292 8.22009 15.1138 8.26513C15.0985 8.31017 15.0735 8.3515 15.0407 8.38638C15.0079 8.42127 14.9678 8.44891 14.9233 8.46749L14.3944 8.49345H6.80052C6.78372 8.49322 6.76716 8.49739 6.75255 8.50554C6.73794 8.51369 6.7258 8.52551 6.7174 8.5398L6.31127 9.2258C6.30379 9.23678 6.2998 9.24968 6.2998 9.26288C6.2998 9.27608 6.30379 9.28899 6.31127 9.29996C6.31755 9.31181 6.32705 9.32172 6.33872 9.3286C6.35039 9.33547 6.36377 9.33904 6.37738 9.3389H14.7892C15.0012 9.33788 15.2092 9.28233 15.3925 9.17779C15.5759 9.07325 15.728 8.92337 15.8339 8.74309C15.9398 8.56281 15.9957 8.35844 15.996 8.15035C15.9963 7.94226 15.9411 7.73773 15.8357 7.55715Z" fill="#000000"/>
<path d="M12.3068 7.71845C12.3134 7.72996 12.323 7.73949 12.3346 7.74603C12.3463 7.75256 12.3595 7.75585 12.3729 7.75553H13.1966C13.21 7.75585 13.2232 7.75256 13.2349 7.74603C13.2465 7.73949 13.2561 7.72996 13.2627 7.71845C13.2701 7.70711 13.274 7.69392 13.274 7.68044C13.274 7.66697 13.2701 7.65378 13.2627 7.64243L8.91037 0.215074C8.8725 0.149552 8.81755 0.0951001 8.75115 0.057305C8.68476 0.0195099 8.60932 -0.000267298 8.53257 2.72845e-06C8.4563 0.000365649 8.38144 0.0201714 8.31533 0.0574786C8.26606 0.0853293 8.22286 0.12244 8.18822 0.166688C8.15357 0.210937 8.12815 0.261455 8.11342 0.315353C8.09868 0.369251 8.09491 0.425472 8.10233 0.4808C8.10975 0.536128 8.12821 0.589478 8.15665 0.637799L12.3068 7.71845Z" fill="#000000"/>
<path d="M12.4035 13.1379L3.74617 13.1509C3.6859 13.1513 3.62662 13.1358 3.57448 13.1062C3.52234 13.0765 3.47922 13.0337 3.44959 12.9822C3.40976 12.9157 3.39504 12.8376 3.40803 12.7615L3.65549 12.2888L7.49021 5.76247C7.49723 5.75133 7.50095 5.73849 7.50095 5.72539C7.50095 5.71229 7.49723 5.69945 7.49021 5.68831L7.0784 4.98748C7.07186 4.97589 7.06229 4.96622 7.05066 4.9595C7.03903 4.95277 7.02578 4.94922 7.01228 4.94922C6.99879 4.94922 6.98553 4.95277 6.97391 4.9595C6.96228 4.96622 6.9527 4.97589 6.94617 4.98748L2.69965 12.2183C2.68721 12.2394 2.67586 12.261 2.66565 12.2832C2.58664 12.4411 2.54399 12.6142 2.54073 12.7901C2.53747 12.966 2.57366 13.1404 2.64676 13.3011C2.74213 13.5091 2.89694 13.6855 3.09242 13.8089C3.28789 13.9323 3.51564 13.9974 3.74806 13.9964L12.4054 13.9834C12.4648 13.9872 12.5243 13.9791 12.5803 13.9594C12.6363 13.9398 12.6876 13.9091 12.731 13.8692C12.7744 13.8293 12.809 13.7811 12.8327 13.7275C12.8563 13.674 12.8685 13.6162 12.8685 13.5579C12.8685 13.4995 12.8563 13.4418 12.8327 13.3882C12.809 13.3347 12.7744 13.2864 12.731 13.2466C12.6876 13.2067 12.6363 13.1759 12.5803 13.1563C12.5243 13.1367 12.4648 13.1285 12.4054 13.1324L12.4035 13.1379Z" fill="#000000"/>
<path d="M13.6898 10.9222L5.36866 10.9092C5.35485 10.9093 5.34131 10.913 5.32939 10.9198C5.31746 10.9266 5.30756 10.9364 5.30065 10.9481L4.89074 11.6471C4.88333 11.6584 4.87939 11.6716 4.87939 11.6851C4.87939 11.6986 4.88333 11.7118 4.89074 11.7231C4.89743 11.7345 4.90707 11.7439 4.91869 11.7504C4.9303 11.7569 4.94347 11.7603 4.95685 11.7602L13.6879 11.775C13.8031 11.775 13.9136 11.7301 13.9951 11.6501C14.0766 11.5702 14.1224 11.4617 14.1224 11.3486C14.1224 11.2355 14.0766 11.127 13.9951 11.0471C13.9136 10.9671 13.8031 10.9222 13.6879 10.9222H13.6898Z" fill="#000000"/>
<path d="M10.5065 7.64275L6.36391 0.597329C6.35446 0.580642 6.34313 0.56581 6.33368 0.550977C6.22103 0.38081 6.06574 0.241895 5.88269 0.147548C5.69963 0.0532005 5.49496 0.00658415 5.28828 0.0121673C5.0816 0.0177505 4.87984 0.075346 4.70235 0.179433C4.52486 0.28352 4.37759 0.430608 4.27465 0.606599L0.0659134 7.754C0.0281843 7.81889 0.00848653 7.89236 0.00879258 7.96707C0.00909862 8.04178 0.0293978 8.11511 0.0676573 8.17969C0.105917 8.24428 0.160794 8.29787 0.226793 8.3351C0.292792 8.37232 0.367597 8.39187 0.443717 8.39179C0.520168 8.39168 0.595261 8.37195 0.661536 8.33455C0.727812 8.29714 0.782966 8.24337 0.821521 8.17858L5.01892 1.02005C5.0487 0.968671 5.09186 0.925973 5.14396 0.896329C5.19607 0.866684 5.25527 0.851157 5.3155 0.851335C5.36574 0.851401 5.41536 0.862154 5.46095 0.882854L5.75564 1.27035L9.02742 6.82697V6.83995L9.54502 7.71877C9.55155 7.73027 9.56116 7.73981 9.57281 7.74634C9.58447 7.75288 9.59771 7.75617 9.61113 7.75585H10.4347C10.4481 7.7556 10.4612 7.75195 10.4727 7.74526C10.4842 7.73857 10.4938 7.72907 10.5004 7.71768C10.5071 7.70629 10.5106 7.6934 10.5107 7.68027C10.5108 7.66714 10.5074 7.65421 10.5009 7.64275H10.5065Z" fill="#000000"/>
<path d="M5.70482 2.65331C5.69783 2.64179 5.68785 2.6323 5.67591 2.62578C5.66397 2.61927 5.65048 2.61598 5.63682 2.61623C5.6234 2.61592 5.61015 2.6192 5.5985 2.62574C5.58685 2.63227 5.57724 2.64181 5.5707 2.65331L1.25429 9.96758C1.19668 10.0659 1.18123 10.1827 1.21134 10.2922C1.24145 10.4018 1.31466 10.4951 1.41486 10.5516C1.51506 10.6082 1.63404 10.6233 1.74564 10.5938C1.85723 10.5642 1.95229 10.4924 2.0099 10.394L6.11096 3.42831C6.11837 3.41696 6.12231 3.40377 6.12231 3.3903C6.12231 3.37683 6.11837 3.36364 6.11096 3.35229L5.70482 2.65331Z" fill="#000000"/>
</g>
<defs>
<clipPath id="clip0_11548_27783">
<rect width="16" height="14" fill="#000000"/>
</clipPath>
</defs>
</svg>
